<svg xmlns="http://www.w3.org/2000/svg" width="50" height="10" viewBox="0 0 50 10">
  <path id="Union_2" data-name="Union 2" d="M-7920.589,9.5h-47.825a1.177,1.177,0,0,1-1.088-1.25A1.177,1.177,0,0,1-7968.414,7h43.9l-7.506-5.178a1.3,1.3,0,0,1-.527-1.074,1.359,1.359,0,0,1,.156-.641,1.009,1.009,0,0,1,1.49-.429l10.854,7.488a.977.977,0,0,1,.1.076,1.2,1.2,0,0,1,.3.4,1.4,1.4,0,0,1,.136.494c0,.04,0,.08,0,.12a1.393,1.393,0,0,1-.039.332,1.351,1.351,0,0,1-.169.406,1.164,1.164,0,0,1-.342.349.988.988,0,0,1-.432.156A.979.979,0,0,1-7920.589,9.5Z" transform="translate(7969.501 0.5)" fill="#4d5cb1"/>
</svg>
