<svg xmlns="http://www.w3.org/2000/svg" width="306.056" height="11.466" viewBox="0 0 306.056 11.466">
  <g id="Group_259" data-name="Group 259" transform="translate(-3 -92.23)">
    <path id="Path_559" data-name="Path 559" d="M0,0H9L2.8,11.466H-6.056Z" transform="translate(9.056 92.23)" fill="#cae7ea"/>
    <path id="Path_560" data-name="Path 560" d="M0,0H9L2.8,11.466H-6.056Z" transform="translate(30.056 92.23)" fill="#cae7ea"/>
    <path id="Path_561" data-name="Path 561" d="M0,0H9L2.8,11.466H-6.056Z" transform="translate(51.056 92.23)" fill="#cae7ea"/>
    <path id="Path_562" data-name="Path 562" d="M0,0H9L2.8,11.466H-6.056Z" transform="translate(71.056 92.23)" fill="#cae7ea"/>
    <path id="Path_563" data-name="Path 563" d="M0,0H9L2.8,11.466H-6.056Z" transform="translate(92.056 92.23)" fill="#cae7ea"/>
    <path id="Path_564" data-name="Path 564" d="M0,0H9L2.8,11.466H-6.056Z" transform="translate(113.056 92.23)" fill="#cae7ea"/>
    <path id="Path_565" data-name="Path 565" d="M0,0H9L2.8,11.466H-6.056Z" transform="translate(134.056 92.23)" fill="#cae7ea"/>
    <path id="Path_566" data-name="Path 566" d="M0,0H9L2.8,11.466H-6.056Z" transform="translate(154.056 92.23)" fill="#cae7ea"/>
    <path id="Path_567" data-name="Path 567" d="M0,0H9L2.8,11.466H-6.056Z" transform="translate(175.056 92.23)" fill="#cae7ea"/>
    <path id="Path_568" data-name="Path 568" d="M0,0H9L2.8,11.466H-6.056Z" transform="translate(196.056 92.23)" fill="#cae7ea"/>
    <path id="Path_569" data-name="Path 569" d="M0,0H9L2.8,11.466H-6.056Z" transform="translate(217.056 92.23)" fill="#cae7ea"/>
    <path id="Path_570" data-name="Path 570" d="M0,0H9L2.8,11.466H-6.056Z" transform="translate(238.056 92.23)" fill="#cae7ea"/>
    <path id="Path_571" data-name="Path 571" d="M0,0H9L2.8,11.466H-6.056Z" transform="translate(258.056 92.23)" fill="#cae7ea"/>
    <path id="Path_572" data-name="Path 572" d="M0,0H9L2.8,11.466H-6.056Z" transform="translate(300.056 92.23)" fill="#cae7ea"/>
    <path id="Path_573" data-name="Path 573" d="M0,0H9L2.8,11.466H-6.056Z" transform="translate(279.056 92.23)" fill="#cae7ea"/>
  </g>
</svg>
