<svg id="Component_65_1" data-name="Component 65 – 1" xmlns="http://www.w3.org/2000/svg" width="32" height="32" viewBox="0 0 32 32">
  <path id="ic_event_note_24px" d="M21.667,13H8.333v2.667H21.667Zm2.667-9.333H23V1H20.333V3.667H9.667V1H7V3.667H5.667A2.655,2.655,0,0,0,3.013,6.333L3,25a2.666,2.666,0,0,0,2.667,2.667H24.333A2.675,2.675,0,0,0,27,25V6.333A2.675,2.675,0,0,0,24.333,3.667Zm0,21.333H5.667V10.333H24.333Zm-6.667-6.667H8.333V21h9.333Z" transform="translate(1 2)" fill="#707070"/>
  <rect id="Rectangle_477" data-name="Rectangle 477" width="32" height="32" fill="none"/>
</svg>
