<svg id="Component_66_1" data-name="Component 66 – 1" xmlns="http://www.w3.org/2000/svg" width="32" height="32" viewBox="0 0 32 32">
  <path id="ic_visibility_off_24px" d="M13.005,7.366a5.459,5.459,0,0,1,5.457,5.457,5.3,5.3,0,0,1-.393,2l3.187,3.187A12.9,12.9,0,0,0,25,12.823,12.908,12.908,0,0,0,12.995,4.637,12.71,12.71,0,0,0,8.651,5.4l2.357,2.357A5.3,5.3,0,0,1,13.005,7.366ZM2.091,4.386,4.58,6.874l.5.5A12.883,12.883,0,0,0,1,12.823a12.9,12.9,0,0,0,16.786,7.269l.458.458,3.2,3.187,1.386-1.386L3.477,3Zm6.035,6.035,1.692,1.692a3.079,3.079,0,0,0-.087.709A3.27,3.27,0,0,0,13.005,16.1a3.079,3.079,0,0,0,.709-.087L15.407,17.7a5.421,5.421,0,0,1-7.28-7.28Zm4.7-.851,3.438,3.438.022-.175a3.27,3.27,0,0,0-3.274-3.274Z" transform="translate(3 3)" fill="#707070"/>
  <rect id="Rectangle_478" data-name="Rectangle 478" width="32" height="32" fill="none"/>
</svg>
